HIERARCHY
ROOT RootJoint
{
    OFFSET   0.000000   0.000000   0.000000
    CHANNELS 6 Xposition Yposition Zposition Xrotation Yrotation Zrotation
    JOINT pelvis_lowerback
    {
        OFFSET   0.000000   0.093605   0.000000
        CHANNELS 3 Xrotation Yrotation Zrotation
        JOINT lowerback_torso
        {
            OFFSET   0.000000   0.100000   0.000000
            CHANNELS 3 Xrotation Yrotation Zrotation
            JOINT torso_head
            {
                OFFSET   0.000000   0.282350   0.000000
                CHANNELS 3 Xrotation Yrotation Zrotation
                End Site
                {
                    OFFSET   0.000000   0.192650   0.000000
                }
            }
            JOINT rTorso_Clavicle
            {
                OFFSET  -0.001000   0.157500   0.000000
                CHANNELS 3 Xrotation Yrotation Zrotation
                JOINT rShoulder
                {
                    OFFSET  -0.117647   0.000000   0.000000
                    CHANNELS 3 Xrotation Yrotation Zrotation
                    JOINT rElbow
                    {
                        OFFSET  -0.245000   0.000000   0.000000
                        CHANNELS 3 Xrotation Yrotation Zrotation
                        JOINT rWrist
                        {
                            OFFSET  -0.240000   0.000000   0.000000
                            CHANNELS 3 Xrotation Yrotation Zrotation
                            End Site
                            {
                                OFFSET  -0.116353  -0.002500   0.000000
                            }
                        }
                    }
                }
            }
            JOINT lTorso_Clavicle
            {
                OFFSET   0.001000   0.157500   0.000000
                CHANNELS 3 Xrotation Yrotation Zrotation
                JOINT lShoulder
                {
                    OFFSET   0.117647   0.000000   0.000000
                    CHANNELS 3 Xrotation Yrotation Zrotation
                    JOINT lElbow
                    {
                        OFFSET   0.245000   0.000000   0.000000
                        CHANNELS 3 Xrotation Yrotation Zrotation
                        JOINT lWrist
                        {
                            OFFSET   0.240000   0.000000   0.000000
                            CHANNELS 3 Xrotation Yrotation Zrotation
                            End Site
                            {
                                OFFSET   0.116353  -0.002500   0.000000
                            }
                        }
                    }
                }
            }
        }
    }
    JOINT rHip
    {
        OFFSET  -0.100000  -0.051395   0.000000
        CHANNELS 3 Xrotation Yrotation Zrotation
        JOINT rKnee
        {
            OFFSET   0.000000  -0.410000   0.000000
            CHANNELS 3 Xrotation Yrotation Zrotation
            JOINT rAnkle
            {
                OFFSET   0.000000  -0.390000   0.000000
                CHANNELS 3 Xrotation Yrotation Zrotation
                JOINT rToeJoint
                {
                    OFFSET   0.000000  -0.050000   0.130000
                    CHANNELS 3 Xrotation Yrotation Zrotation
                    End Site
                    {
                        OFFSET  -0.010000   0.002000   0.060000
                    }
                }
            }
        }
    }
    JOINT lHip
    {
        OFFSET   0.100000  -0.051395   0.000000
        CHANNELS 3 Xrotation Yrotation Zrotation
        JOINT lKnee
        {
            OFFSET   0.000000  -0.410000   0.000000
            CHANNELS 3 Xrotation Yrotation Zrotation
            JOINT lAnkle
            {
                OFFSET   0.000000  -0.390000   0.000000
                CHANNELS 3 Xrotation Yrotation Zrotation
                JOINT lToeJoint
                {
                    OFFSET   0.000000  -0.050000   0.130000
                    CHANNELS 3 Xrotation Yrotation Zrotation
                    End Site
                    {
                        OFFSET   0.010000   0.002000   0.060000
                    }
                }
            }
        }
    }
}
MOTION
Frames: 14
Frame Time:   0.008333
 -2.344202   0.914779   4.051878 -172.736067  32.109460 176.697509   8.825473  -2.117780  -0.146107   1.263026  -4.879607   3.068632   0.627069  -1.630512   3.192760   1.922073  -8.343040   9.018389   1.288485  -3.735363  42.710644  -0.000668  19.543529   0.003282   0.210659   2.374837  -2.667299   2.542423   1.532032  -8.136255   1.674999  -6.597345 -46.012423  -0.000006 -24.000968  -0.000117   3.765171  -2.192139   2.395569   7.123355  11.097188  -0.402101  11.063756   0.000197   0.001562 -11.382138  10.635179  -0.989165  -0.734143   0.000017  -0.000000  -6.699159   1.840874   8.536492  50.908827  -0.022481  -0.023957 -10.721432   5.418044   0.093024  -1.869766  -0.001806  -0.007728
 -2.343697   0.914830   4.050462 -172.600236  32.861944 176.552568   8.910405  -2.048547  -0.107615   1.241233  -4.871403   3.034571   0.717832  -1.652757   3.289741   1.897727  -8.382166   9.040002   1.261340  -3.760985  42.693408  -0.000691  19.719133   0.003634   0.194916   2.303461  -2.673447   2.550695   1.542472  -8.109926   1.708526  -6.609324 -45.909755  -0.000023 -23.900392  -0.000635   3.764778  -2.223444   2.367377   7.260103  11.366755  -0.504949  10.963486   0.000179   0.001683 -11.350353  11.126030  -0.871359  -0.745940   0.000019  -0.000000  -7.067663   1.411875   8.505360  51.206004  -0.019997  -0.021238 -10.874050   5.063824   0.050055  -1.823606  -0.001628  -0.006718
 -2.343225   0.914872   4.049077 -172.477741  33.637559 176.395825   8.997994  -1.976297  -0.066476   1.219214  -4.852025   3.007571   0.800218  -1.674505   3.384025   1.866790  -8.410406   9.066657   1.230015  -3.776648  42.685880  -0.000692  19.888964   0.003872   0.180607   2.265204  -2.664907   2.570087   1.560744  -8.085685   1.750195  -6.611242 -45.814249  -0.000055 -23.798794  -0.001070   3.763250  -2.213777   2.330718   7.373688  11.653737  -0.595608  10.857890   0.000165   0.001809 -11.312343  11.623774  -0.761839  -0.755037   0.000018  -0.000000  -7.433549   0.957591   8.499177  51.392619  -0.017328  -0.018332 -11.021258   4.730912   0.010212  -1.787849  -0.001456  -0.005792
 -2.342790   0.914903   4.047682 -172.350546  34.407134 176.229867   9.092656  -1.907406  -0.027507   1.206576  -4.829374   2.984633   0.877876  -1.695252   3.472227   1.834721  -8.432887   9.097040   1.198653  -3.788032  42.683811  -0.000679  20.049191   0.003983   0.167160   2.241519  -2.646858   2.592933   1.581139  -8.063868   1.793143  -6.609501 -45.725776  -0.000091 -23.701315  -0.001397   3.761305  -2.184693   2.288750   7.486286  11.944581  -0.683511  10.754697   0.000150   0.001892 -11.278836  12.112435  -0.657964  -0.762114   0.000016  -0.000000  -7.801327   0.512999   8.511148  51.536924  -0.014881  -0.015678 -11.159812   4.420422  -0.027275  -1.755685  -0.001304  -0.004997
 -2.342392   0.914921   4.046251 -172.215068  35.158252 176.058520   9.191664  -1.843601   0.008061   1.203438  -4.807258   2.963355   0.951830  -1.714737   3.554329   1.804687  -8.453408   9.129099   1.169563  -3.798234  42.684858  -0.000657  20.198877   0.003988   0.154338   2.221623  -2.623336   2.616696   1.601672  -8.045067   1.835218  -6.606287 -45.644386  -0.000125 -23.609089  -0.001623   3.759302  -2.147585   2.243350   7.604645  12.232983  -0.773817  10.656963   0.000131   0.001922 -11.254608  12.585461  -0.557252  -0.767723   0.000014   0.000000  -8.168452   0.086882   8.533193  51.657430  -0.012730  -0.013356 -11.289632   4.130825  -0.062739  -1.726800  -0.001164  -0.004310
 -2.342027   0.914926   4.044770 -172.071696  35.885349 175.883694   9.291973  -1.785402   0.040491   1.207744  -4.787296   2.942937   1.022109  -1.732913   3.630783   1.778000  -8.473804   9.161225   1.143643  -3.808715  42.687484  -0.000631  20.338006   0.003913   0.141968   2.200434  -2.597216   2.640400   1.621661  -8.029379   1.875654  -6.602468 -45.569889  -0.000153 -23.522351  -0.001764   3.757345  -2.107433   2.195464   7.730370  12.515846  -0.867970  10.565525   0.000111   0.001906 -11.241515  13.040192  -0.458341  -0.772197   0.000012   0.000000  -8.532022  -0.318195   8.560737  51.760818  -0.010863  -0.011353 -11.411117   3.860661  -0.096324  -1.701001  -0.001036  -0.003713
 -2.341692   0.914917   4.043232 -171.921881  36.585879 175.706191   9.391185  -1.732835   0.070378   1.217322  -4.770096   2.923328   1.088612  -1.749825   3.702094   1.754965  -8.494762   9.192450   1.121038  -3.820012  42.690768  -0.000603  20.467007   0.003781   0.129958   2.175969  -2.570366   2.663549   1.640809  -8.016534   1.914129  -6.598458 -45.501812  -0.000175 -23.441023  -0.001835   3.755468  -2.066526   2.145877   7.863227  12.791502  -0.965723  10.480348   0.000089   0.001854 -11.240046  13.475689  -0.360405  -0.775777   0.000010   0.000000  -8.889535  -0.701712   8.591195  51.850458  -0.009251  -0.009635 -11.524744   3.608597  -0.128114  -1.678021  -0.000918  -0.003195
 -2.341389   0.914988   4.041668 -171.850799  37.416258 175.582003   9.431143  -1.673444   0.094809   1.199823  -4.741698   2.859371   1.140996  -1.773877   3.822766   1.711763  -8.484662   9.272598   1.035885  -3.777775  42.695834  -0.000512  20.511921   0.003287   0.079696   2.137850  -2.550223   2.697598   1.707376  -8.011330   2.044170  -6.577894 -45.431854  -0.000417 -23.215930  -0.002842   3.752107  -2.128750   2.118512   7.902560  13.132586  -1.112539  10.385933   0.000058   0.001899 -11.196210  14.013811  -0.139998  -0.803297   0.000035  -0.000011  -9.019126  -1.462127   8.516599  51.201969  -0.001507  -0.001146 -11.673502   3.063989  -0.208106  -1.673273  -0.000765  -0.002633
 -2.341126   0.915032   4.040165 -171.808901  38.292444 175.445696   9.471303  -1.610689   0.130804   1.175321  -4.698549   2.805469   1.183623  -1.799570   3.938082   1.656685  -8.459120   9.358057   0.945722  -3.725465  42.712269  -0.000435  20.558671   0.002906   0.028503   2.109739  -2.517233   2.750358   1.784705  -8.011120   2.183821  -6.543178 -45.371648  -0.000659 -22.992944  -0.003704   3.747604  -2.121852   2.066202   7.894483  13.480036  -1.232105  10.293227   0.000040   0.001960 -11.146442  14.548185   0.069354  -0.827954   0.000050  -0.000008  -9.136018  -2.255548   8.488109  50.431628   0.006037   0.007327 -11.819580   2.552062  -0.282199  -1.668730  -0.000643  -0.002183
 -2.340917   0.915059   4.038671 -171.766750  39.164113 175.298434   9.523415  -1.552645   0.169501   1.159869  -4.653153   2.759857   1.223306  -1.824708   4.046227   1.599977  -8.429083   9.446694   0.858006  -3.671600  42.734946  -0.000370  20.604682   0.002589  -0.020759   2.095289  -2.473093   2.806712   1.861177  -8.015829   2.320089  -6.505979 -45.319122  -0.000861 -22.780808  -0.004345   3.742694  -2.084159   1.999795   7.879580  13.830878  -1.341702  10.199752   0.000021   0.002007 -11.099748  15.075769   0.264337  -0.848348   0.000055  -0.000007  -9.262317  -3.025771   8.492097  49.667835   0.011741   0.013966 -11.957555   2.074664  -0.351323  -1.663439  -0.000547  -0.001832
 -2.340762   0.915072   4.037149 -171.717152  40.012632 175.146561   9.585492  -1.500821   0.206230   1.155636  -4.610775   2.718648   1.261942  -1.848538   4.147180   1.546635  -8.400159   9.535820   0.776226  -3.620539  42.761021  -0.000315  20.647913   0.002311  -0.067992   2.085003  -2.421441   2.861918   1.933484  -8.024356   2.449310  -6.469890 -45.273152  -0.001013 -22.581377  -0.004769   3.737910  -2.035915   1.925766   7.870937  14.176148  -1.451470  10.108412   0.000002   0.002022 -11.061996  15.585994   0.449940  -0.865607   0.000054  -0.000005  -9.399239  -3.757722   8.512517  48.939666   0.015591   0.018682 -12.086900   1.629288  -0.416231  -1.658733  -0.000466  -0.001539
 -2.340656   0.915072   4.035579 -171.659362  40.830638 174.992844   9.654145  -1.455418   0.240318   1.160859  -4.573245   2.680179   1.299595  -1.870859   4.241284   1.498590  -8.374714   9.623036   0.701534  -3.574102  42.788311  -0.000269  20.687542   0.002060  -0.113377   2.072555  -2.365891   2.914459   2.000935  -8.035689   2.570589  -6.435965 -45.232839  -0.001113 -22.394767  -0.005004   3.733407  -1.985373   1.847661   7.872295  14.511955  -1.564572  10.020379  -0.000018   0.002003 -11.035744  16.075017   0.628303  -0.880250   0.000051  -0.000004  -9.544761  -4.447742   8.540815  48.253105   0.017922   0.021769 -12.207922   1.213661  -0.477301  -1.655059  -0.000394  -0.001286
 -2.340614   0.915066   4.033950 -171.597168  41.621547 174.839649   9.726089  -1.414055   0.274069   1.172393  -4.539380   2.643709   1.335795  -1.891595   4.328955   1.455377  -8.352420   9.706107   0.633228  -3.532116  42.814633  -0.000232  20.723645   0.001834  -0.157009   2.056075  -2.310207   2.964000   2.063633  -8.050437   2.683973  -6.404468 -45.198200  -0.001170 -22.220471  -0.005090   3.729141  -1.935659   1.767337   7.885453  14.835864  -1.680104   9.930221  -0.000037   0.001985 -11.031410  16.547554   0.742082  -0.877981   0.000041  -0.000003  -9.698014  -5.095413   8.570641  47.607505   0.019105   0.023605 -12.321077   0.825780  -0.534786  -1.652285  -0.000330  -0.001067
 -2.340610   0.915159   4.032188 -171.551569  42.623834 174.690846   9.746187  -1.333206   0.299292   1.198772  -4.478663   2.594614   1.353659  -1.938715   4.444194   1.363250  -8.258116   9.840997   0.566709  -3.434856  42.789518  -0.000165  20.653805   0.001080  -0.222871   2.066530  -2.239272   3.005871   2.208569  -8.079714   2.889684  -6.386911 -45.215602  -0.001777 -21.870976  -0.006613   3.720851  -1.987907   1.736569   7.787878  15.246779  -1.822429   9.943049  -0.000026   0.001520 -11.015478  17.143563   0.884626  -0.949398   0.000035  -0.000003  -9.462007  -6.222471   8.517929  46.171350   0.030948   0.040712 -12.496875  -0.042470  -0.665511  -1.657999  -0.000232  -0.000711
